<svg width="754" height="754" viewBox="0 0 754 754" fill="none" xmlns="http://www.w3.org/2000/svg">
<g clip-path="url(#clip0_229_5)">
<path d="M542.48 259.8H211.52L377 199.82L542.48 259.8Z" fill="url(#paint0_linear_229_5)"/>
<path d="M377 199.82V0L211.52 259.8L377 199.82Z" fill="url(#paint1_linear_229_5)"/>
<path d="M377 199.82V0L542.48 259.8L377 199.82Z" fill="url(#paint2_linear_229_5)"/>
<path d="M593.71 340.17H160.39L377 399.68L593.71 340.17Z" fill="url(#paint3_linear_229_5)"/>
<path d="M0 591.6L377 754V399.68L160.39 340.17L0 591.6Z" fill="url(#paint4_linear_229_5)"/>
<path d="M754 591.6L377 754V399.68L593.71 340.17L754 591.6Z" fill="url(#paint5_linear_229_5)"/>
</g>
<defs>
<linearGradient id="paint0_linear_229_5" x1="381.41" y1="309.22" x2="368.29" y2="162.13" gradientUnits="userSpaceOnUse">
<stop offset="0.23" stop-color="#943259"/>
<stop offset="0.34" stop-color="#793070"/>
<stop offset="0.47" stop-color="#612E85"/>
<stop offset="0.59" stop-color="#522C92"/>
<stop offset="0.69" stop-color="#4D2C96"/>
</linearGradient>
<linearGradient id="paint1_linear_229_5" x1="-23.15" y1="132.68" x2="542.51" y2="127.73" gradientUnits="userSpaceOnUse">
<stop offset="0.05" stop-color="#FCB503"/>
<stop offset="0.14" stop-color="#FCB103"/>
<stop offset="0.85" stop-color="#F73F01"/>
</linearGradient>
<linearGradient id="paint2_linear_229_5" x1="377.92" y1="-81.91" x2="661.48" y2="998.33" gradientUnits="userSpaceOnUse">
<stop offset="0.14" stop-color="#FCB103"/>
<stop offset="0.16" stop-color="#FCB503"/>
<stop offset="0.67" stop-color="#F73F01"/>
</linearGradient>
<linearGradient id="paint3_linear_229_5" x1="375.15" y1="255.93" x2="387.29" y2="793.97" gradientUnits="userSpaceOnUse">
<stop stop-color="#943259"/>
<stop offset="0.13" stop-color="#F73F01"/>
<stop offset="0.18" stop-color="#F96902"/>
<stop offset="0.23" stop-color="#FA8A02"/>
<stop offset="0.28" stop-color="#FBA203"/>
<stop offset="0.33" stop-color="#FCB003"/>
<stop offset="0.37" stop-color="#FCB503"/>
</linearGradient>
<linearGradient id="paint4_linear_229_5" x1="730.17" y1="506.13" x2="-409.03" y2="607.24" gradientUnits="userSpaceOnUse">
<stop offset="0.11" stop-color="#2D1A62"/>
<stop offset="0.12" stop-color="#2E1A63"/>
<stop offset="0.55" stop-color="#442788"/>
<stop offset="0.78" stop-color="#4D2C96"/>
</linearGradient>
<linearGradient id="paint5_linear_229_5" x1="137.49" y1="653.89" x2="971.4" y2="385.62" gradientUnits="userSpaceOnUse">
<stop stop-color="#4D2C96"/>
<stop offset="0.57" stop-color="#943259"/>
</linearGradient>
<clipPath id="clip0_229_5">
<rect width="754" height="754" fill="white"/>
</clipPath>
</defs>
</svg>
