<svg width="800" height="800" viewBox="0 0 800 800" fill="none" xmlns="http://www.w3.org/2000/svg">
<rect width="800" height="800" fill="black"/>
<path d="M452.536 464.015H334.373C329.354 464.015 325.283 467.373 325.283 471.516C325.283 475.658 329.353 479.017 334.373 479.017H452.536C457.556 479.017 461.625 475.659 461.625 471.516C461.627 467.373 457.556 464.015 452.536 464.015Z" fill="url(#paint0_linear_102_30)"/>
<path d="M452.536 494.506H334.373C329.354 494.506 325.283 497.864 325.283 502.007C325.283 506.15 329.353 509.508 334.373 509.508H452.536C457.556 509.508 461.625 506.15 461.625 502.007C461.625 497.864 457.556 494.506 452.536 494.506Z" fill="url(#paint1_linear_102_30)"/>
<path d="M421.097 524.998H365.666C360.646 524.998 356.575 528.356 356.575 532.499C356.575 536.642 360.645 540 365.666 540H421.097C426.116 540 430.187 536.642 430.187 532.499C430.187 528.356 426.116 524.998 421.097 524.998Z" fill="url(#paint2_linear_102_30)"/>
<path d="M398.001 60C298.748 60 218 126.628 218 208.525C218 238.665 228.967 267.452 249.716 291.772C268.606 313.913 294.645 331.36 325.284 342.475V380.164H316.195C311.175 380.164 307.105 383.522 307.105 387.665V441.025C307.105 445.166 311.174 448.526 316.195 448.526H470.715C475.734 448.526 479.805 445.167 479.805 441.025V387.665C479.805 383.523 475.735 380.164 470.715 380.164H461.625V342.791C494.712 332.608 522.852 315.771 543.296 293.85C565.998 269.507 578 240.002 578 208.526C578 126.628 497.252 60 398.001 60ZM461.625 433.523H325.285V395.164H461.625V433.523ZM528.889 284.701C509.387 305.611 481.982 321.412 449.64 330.391C445.843 331.445 443.455 334.367 443.455 337.499H443.447V380.163H425.27V247.5C425.27 243.358 421.2 239.999 416.179 239.999C411.16 239.999 407.089 243.357 407.089 247.5V380.164H379.821V247.5C379.821 243.358 375.751 239.999 370.732 239.999C365.712 239.999 361.641 243.357 361.641 247.5V380.164H343.464V337.5H343.459C343.458 334.528 341.307 331.715 337.759 330.54C307.911 320.657 282.605 304.265 264.581 283.138C246 261.358 236.18 235.558 236.18 208.526C236.18 134.9 308.771 75.0026 397.999 75.0026C487.227 75.0026 559.82 134.899 559.82 208.525C559.82 236.663 549.126 263.003 528.889 284.701Z" fill="url(#paint3_linear_102_30)"/>
<path d="M408.878 105.001C408.878 100.859 404.808 97.5002 399.787 97.5002C355.008 97.5002 313.014 117.277 290.192 149.113C287.635 152.677 289.066 157.278 293.386 159.386C294.838 160.095 296.431 160.433 298.006 160.433C301.114 160.433 304.141 159.117 305.837 156.75C325.404 129.456 361.405 112.501 399.787 112.501C404.808 112.501 408.878 109.143 408.878 105.001Z" fill="url(#paint4_linear_102_30)"/>
<path d="M286.877 172.699C282 171.75 277.096 174.242 275.942 178.273C273.682 186.166 272.535 194.317 272.535 202.5C272.535 206.642 276.605 210.001 281.626 210.001C286.645 210.001 290.716 206.643 290.716 202.5C290.716 195.477 291.697 188.488 293.634 181.722C294.788 177.692 291.763 173.651 286.877 172.699Z" fill="url(#paint5_linear_102_30)"/>
<path d="M433.21 204.696C431.505 203.29 429.193 202.499 426.783 202.499C424.373 202.499 422.061 203.29 420.357 204.696L410.121 213.142L399.885 204.696C398.18 203.29 395.868 202.499 393.458 202.499C391.048 202.499 388.736 203.29 387.032 204.696L376.795 213.142L366.557 204.696C364.853 203.29 362.541 202.499 360.131 202.499C357.721 202.499 355.408 203.29 353.705 204.696L337.041 218.447C333.491 221.376 333.491 226.125 337.041 229.053C340.592 231.983 346.346 231.983 349.895 229.053L360.131 220.606L370.367 229.053C372.072 230.46 374.384 231.25 376.794 231.25C379.204 231.25 381.516 230.46 383.22 229.053L393.458 220.606L403.694 229.053C405.399 230.46 407.711 231.25 410.121 231.25C412.531 231.25 414.844 230.46 416.547 229.053L426.783 220.606L437.022 229.053C438.795 230.518 441.122 231.25 443.448 231.25C445.774 231.25 448.101 230.518 449.874 229.053C453.424 226.124 453.424 221.376 449.874 218.447L433.21 204.696Z" fill="url(#paint6_linear_102_30)"/>
<path d="M125.348 623.54H150.548V629H120.308V564.488H126.776V624.884L125.348 623.54ZM185.93 618.92H186.854C185.454 622.616 183.438 625.36 180.806 627.152C178.174 628.944 175.374 629.84 172.406 629.84C167.814 629.84 164.258 628.468 161.738 625.724C159.218 622.924 157.958 619.004 157.958 613.964V581.204H164.174V613.376C164.174 617.072 165.014 619.928 166.694 621.944C168.374 623.96 170.642 624.968 173.498 624.968C175.626 624.968 177.586 624.324 179.378 623.036C181.226 621.748 182.682 619.872 183.746 617.408C184.866 614.888 185.426 611.836 185.426 608.252V581.204H191.642V618.332C191.642 620.628 191.95 622.308 192.566 623.372C193.182 624.436 194.358 624.968 196.094 624.968C196.318 624.968 196.542 624.968 196.766 624.968C197.046 624.968 197.326 624.94 197.606 624.884L197.774 629.588C197.214 629.7 196.654 629.784 196.094 629.84C195.59 629.896 195.086 629.924 194.582 629.924C191.558 629.924 189.346 629.056 187.946 627.32C186.602 625.584 185.93 622.784 185.93 618.92ZM265.569 629H259.437V596.996C259.437 593.132 258.625 590.22 257.001 588.26C255.433 586.3 253.417 585.32 250.953 585.32C248.993 585.32 247.145 585.936 245.409 587.168C243.729 588.4 242.357 590.276 241.293 592.796C240.229 595.26 239.697 598.34 239.697 602.036V629H233.397V596.996C233.397 593.132 232.613 590.22 231.045 588.26C229.477 586.3 227.349 585.32 224.661 585.32C222.645 585.32 220.741 585.936 218.949 587.168C217.213 588.4 215.785 590.276 214.665 592.796C213.545 595.26 212.985 598.34 212.985 602.036V629H206.769V581.204H212.649L212.901 594.056H210.801C211.585 590.976 212.733 588.428 214.245 586.412C215.813 584.396 217.605 582.884 219.621 581.876C221.637 580.812 223.737 580.28 225.921 580.28C228.497 580.28 230.737 580.868 232.641 582.044C234.601 583.164 236.169 584.788 237.345 586.916C238.577 589.044 239.305 591.592 239.529 594.56H237.345C238.185 591.312 239.333 588.652 240.789 586.58C242.301 584.452 244.037 582.884 245.997 581.876C248.013 580.812 250.085 580.28 252.213 580.28C254.901 580.28 257.253 580.896 259.269 582.128C261.285 583.36 262.825 585.152 263.889 587.504C265.009 589.856 265.569 592.768 265.569 596.24V629ZM297.237 629.924C293.149 629.924 289.565 628.972 286.485 627.068C283.405 625.108 280.997 622.28 279.261 618.584C277.581 614.832 276.741 610.268 276.741 604.892C276.741 599.908 277.525 595.596 279.093 591.956C280.661 588.26 282.873 585.404 285.729 583.388C288.585 581.316 291.889 580.28 295.641 580.28C299.785 580.28 303.117 581.26 305.637 583.22C308.213 585.18 310.061 587.924 311.181 591.452C312.301 594.924 312.861 598.984 312.861 603.632V605.984H280.185L280.269 601.112L306.561 600.944C306.561 598.984 306.365 597.08 305.973 595.232C305.637 593.384 305.021 591.732 304.125 590.276C303.285 588.764 302.165 587.588 300.765 586.748C299.421 585.852 297.685 585.404 295.557 585.404C291.693 585.404 288.669 587.196 286.485 590.78C284.301 594.308 283.209 599.096 283.209 605.144C283.209 611.472 284.553 616.316 287.241 619.676C289.985 622.98 293.569 624.632 297.993 624.632C300.009 624.632 301.969 624.38 303.873 623.876C305.833 623.316 307.877 622.504 310.005 621.44L311.853 625.892C309.389 627.236 306.897 628.244 304.377 628.916C301.913 629.588 299.533 629.924 297.237 629.924ZM349.975 629V596.996C349.975 593.244 349.163 590.388 347.539 588.428C345.915 586.412 343.731 585.404 340.987 585.404C338.971 585.404 337.067 586.02 335.275 587.252C333.483 588.484 332.027 590.332 330.907 592.796C329.787 595.26 329.227 598.368 329.227 602.12V629H323.011V581.204H328.891L329.059 594.056H327.127C328.359 589.352 330.319 585.88 333.007 583.64C335.751 581.4 338.859 580.28 342.331 580.28C345.131 580.28 347.567 580.896 349.639 582.128C351.767 583.36 353.391 585.152 354.511 587.504C355.631 589.856 356.191 592.768 356.191 596.24V629H349.975ZM394.493 623.54H419.693V629H389.453V564.488H395.921V624.884L394.493 623.54ZM427.927 629V581.204H434.059V629H427.927ZM431.035 572.3C429.747 572.3 428.683 571.852 427.843 570.956C427.003 570.06 426.583 568.856 426.583 567.344C426.583 565.888 427.003 564.712 427.843 563.816C428.739 562.92 429.803 562.472 431.035 562.472C432.323 562.472 433.387 562.92 434.227 563.816C435.067 564.712 435.487 565.888 435.487 567.344C435.487 568.8 435.067 570.004 434.227 570.956C433.387 571.852 432.323 572.3 431.035 572.3ZM507.643 629H501.511V596.996C501.511 593.132 500.699 590.22 499.075 588.26C497.507 586.3 495.491 585.32 493.027 585.32C491.067 585.32 489.219 585.936 487.483 587.168C485.803 588.4 484.431 590.276 483.367 592.796C482.303 595.26 481.771 598.34 481.771 602.036V629H475.471V596.996C475.471 593.132 474.687 590.22 473.119 588.26C471.551 586.3 469.423 585.32 466.735 585.32C464.719 585.32 462.815 585.936 461.023 587.168C459.287 588.4 457.859 590.276 456.739 592.796C455.619 595.26 455.059 598.34 455.059 602.036V629H448.843V581.204H454.723L454.975 594.056H452.875C453.659 590.976 454.807 588.428 456.319 586.412C457.887 584.396 459.679 582.884 461.695 581.876C463.711 580.812 465.811 580.28 467.995 580.28C470.571 580.28 472.811 580.868 474.715 582.044C476.675 583.164 478.243 584.788 479.419 586.916C480.651 589.044 481.379 591.592 481.603 594.56H479.419C480.259 591.312 481.407 588.652 482.863 586.58C484.375 584.452 486.111 582.884 488.071 581.876C490.087 580.812 492.159 580.28 494.287 580.28C496.975 580.28 499.327 580.896 501.343 582.128C503.359 583.36 504.899 585.152 505.963 587.504C507.083 589.856 507.643 592.768 507.643 596.24V629ZM522.427 629V581.204H528.559V629H522.427ZM525.535 572.3C524.247 572.3 523.183 571.852 522.343 570.956C521.503 570.06 521.083 568.856 521.083 567.344C521.083 565.888 521.503 564.712 522.343 563.816C523.239 562.92 524.303 562.472 525.535 562.472C526.823 562.472 527.887 562.92 528.727 563.816C529.567 564.712 529.987 565.888 529.987 567.344C529.987 568.8 529.567 570.004 528.727 570.956C527.887 571.852 526.823 572.3 525.535 572.3ZM556.531 629.924C553.283 629.924 550.651 628.832 548.635 626.648C546.675 624.408 545.695 621.132 545.695 616.82V568.268H551.911V615.644C551.911 618.612 552.471 620.852 553.591 622.364C554.767 623.876 556.307 624.632 558.211 624.632C558.995 624.632 559.807 624.52 560.647 624.296C561.487 624.016 562.411 623.624 563.419 623.12L565.183 627.152C563.615 628.048 562.103 628.72 560.647 629.168C559.247 629.672 557.875 629.924 556.531 629.924ZM538.051 586.16V581.204H563.419V586.16H538.051ZM573.697 619.844V559.7H579.913V619.172C579.913 621.02 580.249 622.42 580.921 623.372C581.593 624.268 582.601 624.716 583.945 624.716C584.505 624.716 585.121 624.66 585.793 624.548C586.521 624.38 587.249 624.156 587.977 623.876L588.061 628.832C587.165 629.168 586.269 629.42 585.373 629.588C584.533 629.756 583.637 629.84 582.685 629.84C579.997 629.84 577.813 629 576.133 627.32C574.509 625.64 573.697 623.148 573.697 619.844ZM613.796 629.924C609.708 629.924 606.124 628.972 603.044 627.068C599.964 625.108 597.556 622.28 595.82 618.584C594.14 614.832 593.3 610.268 593.3 604.892C593.3 599.908 594.084 595.596 595.652 591.956C597.22 588.26 599.432 585.404 602.288 583.388C605.144 581.316 608.448 580.28 612.2 580.28C616.344 580.28 619.676 581.26 622.196 583.22C624.772 585.18 626.62 587.924 627.74 591.452C628.86 594.924 629.42 598.984 629.42 603.632V605.984H596.744L596.828 601.112L623.12 600.944C623.12 598.984 622.924 597.08 622.532 595.232C622.196 593.384 621.58 591.732 620.684 590.276C619.844 588.764 618.724 587.588 617.324 586.748C615.98 585.852 614.244 585.404 612.116 585.404C608.252 585.404 605.228 587.196 603.044 590.78C600.86 594.308 599.768 599.096 599.768 605.144C599.768 611.472 601.112 616.316 603.8 619.676C606.544 622.98 610.128 624.632 614.552 624.632C616.568 624.632 618.528 624.38 620.432 623.876C622.392 623.316 624.436 622.504 626.564 621.44L628.412 625.892C625.948 627.236 623.456 628.244 620.936 628.916C618.472 629.588 616.092 629.924 613.796 629.924ZM649.902 629.924C647.438 629.924 644.946 629.504 642.426 628.664C639.906 627.824 637.554 626.592 635.37 624.968L637.89 620.768C639.738 622.056 641.726 623.064 643.854 623.792C645.982 624.464 647.97 624.8 649.818 624.8C652.226 624.8 654.298 624.1 656.034 622.7C657.77 621.244 658.638 619.228 658.638 616.652C658.638 614.748 658.106 613.18 657.042 611.948C655.978 610.716 654.606 609.652 652.926 608.756C651.302 607.86 649.566 606.992 647.718 606.152C645.926 605.256 644.19 604.276 642.51 603.212C640.83 602.092 639.458 600.692 638.394 599.012C637.386 597.332 636.882 595.232 636.882 592.712C636.882 590.024 637.582 587.784 638.982 585.992C640.382 584.144 642.174 582.744 644.358 581.792C646.598 580.784 648.922 580.28 651.33 580.28C654.018 580.28 656.622 580.896 659.142 582.128C661.718 583.36 663.678 585.264 665.022 587.84L660.486 590.444C659.534 588.652 658.19 587.364 656.454 586.58C654.718 585.74 652.982 585.32 651.246 585.32C649.846 585.32 648.53 585.6 647.298 586.16C646.066 586.72 645.058 587.532 644.274 588.596C643.49 589.66 643.098 591.004 643.098 592.628C643.098 594.42 643.602 595.904 644.61 597.08C645.674 598.256 647.018 599.292 648.642 600.188C650.322 601.084 652.086 601.98 653.934 602.876C655.782 603.716 657.518 604.724 659.142 605.9C660.822 607.02 662.166 608.42 663.174 610.1C664.238 611.724 664.77 613.796 664.77 616.316C664.77 619.228 664.042 621.692 662.586 623.708C661.186 625.724 659.366 627.264 657.126 628.328C654.886 629.392 652.478 629.924 649.902 629.924ZM686.57 629.924C684.106 629.924 681.614 629.504 679.094 628.664C676.574 627.824 674.222 626.592 672.038 624.968L674.558 620.768C676.406 622.056 678.394 623.064 680.522 623.792C682.65 624.464 684.638 624.8 686.486 624.8C688.894 624.8 690.966 624.1 692.702 622.7C694.438 621.244 695.306 619.228 695.306 616.652C695.306 614.748 694.774 613.18 693.71 611.948C692.646 610.716 691.274 609.652 689.594 608.756C687.97 607.86 686.234 606.992 684.386 606.152C682.594 605.256 680.858 604.276 679.178 603.212C677.498 602.092 676.126 600.692 675.062 599.012C674.054 597.332 673.55 595.232 673.55 592.712C673.55 590.024 674.25 587.784 675.65 585.992C677.05 584.144 678.842 582.744 681.026 581.792C683.266 580.784 685.59 580.28 687.998 580.28C690.686 580.28 693.29 580.896 695.81 582.128C698.386 583.36 700.346 585.264 701.69 587.84L697.154 590.444C696.202 588.652 694.858 587.364 693.122 586.58C691.386 585.74 689.65 585.32 687.914 585.32C686.514 585.32 685.198 585.6 683.966 586.16C682.734 586.72 681.726 587.532 680.942 588.596C680.158 589.66 679.766 591.004 679.766 592.628C679.766 594.42 680.27 595.904 681.278 597.08C682.342 598.256 683.686 599.292 685.31 600.188C686.99 601.084 688.754 601.98 690.602 602.876C692.45 603.716 694.186 604.724 695.81 605.9C697.49 607.02 698.834 608.42 699.842 610.1C700.906 611.724 701.438 613.796 701.438 616.316C701.438 619.228 700.71 621.692 699.254 623.708C697.854 625.724 696.034 627.264 693.794 628.328C691.554 629.392 689.146 629.924 686.57 629.924Z" fill="#C49437"/>
<defs>
<linearGradient id="paint0_linear_102_30" x1="495.071" y1="462.178" x2="494.521" y2="481.845" gradientUnits="userSpaceOnUse">
<stop stop-color="#3A2700"/>
<stop offset="1" stop-color="#C49437"/>
</linearGradient>
<linearGradient id="paint1_linear_102_30" x1="495.071" y1="492.669" x2="494.521" y2="512.336" gradientUnits="userSpaceOnUse">
<stop stop-color="#3A2700"/>
<stop offset="1" stop-color="#C49437"/>
</linearGradient>
<linearGradient id="paint2_linear_102_30" x1="448.245" y1="523.161" x2="447.227" y2="542.791" gradientUnits="userSpaceOnUse">
<stop stop-color="#3A2700"/>
<stop offset="1" stop-color="#C49437"/>
</linearGradient>
<linearGradient id="paint3_linear_102_30" x1="666.311" y1="12.4249" x2="536.215" y2="486.458" gradientUnits="userSpaceOnUse">
<stop stop-color="#3A2700"/>
<stop offset="1" stop-color="#C49437"/>
</linearGradient>
<linearGradient id="paint4_linear_102_30" x1="438.304" y1="89.794" x2="427.481" y2="170.917" gradientUnits="userSpaceOnUse">
<stop stop-color="#3A2700"/>
<stop offset="1" stop-color="#C49437"/>
</linearGradient>
<linearGradient id="paint5_linear_102_30" x1="299.116" y1="167.905" x2="280.79" y2="208.92" gradientUnits="userSpaceOnUse">
<stop stop-color="#3A2700"/>
<stop offset="1" stop-color="#C49437"/>
</linearGradient>
<linearGradient id="paint6_linear_102_30" x1="481.522" y1="198.978" x2="479.197" y2="236.556" gradientUnits="userSpaceOnUse">
<stop stop-color="#3A2700"/>
<stop offset="1" stop-color="#C49437"/>
</linearGradient>
</defs>
</svg>
