<svg width="500" height="500" viewBox="0 0 500 500" fill="none" xmlns="http://www.w3.org/2000/svg">
<rect width="500" height="500" rx="80" fill="white"/>
<path d="M129.114 225.052H163.107V208.475H129.114V177H108.76V208.475H84V225.052H108.76V278.139C108.76 289.47 109.18 298.703 113.376 307.096C117.573 315.489 125.337 320.315 135.409 322.623C143.173 324.302 155.133 323.882 163.107 321.784V303.948C157.231 304.998 150.307 305.207 144.432 304.788C139.186 304.158 134.15 301.221 131.632 296.604C128.904 292.198 129.114 286.113 129.114 276.88V225.052Z" fill="#2E3338"/>
<path d="M240.799 207.33V207.33C247.322 227.781 263.347 243.806 283.799 250.33V250.33V250.33C263.347 256.853 247.322 272.878 240.799 293.33V293.33V293.33C234.275 272.878 218.25 256.853 197.799 250.33V250.33V250.33C218.25 243.806 234.275 227.781 240.799 207.33V207.33Z" fill="#2E3338"/>
<path d="M414.804 236.999C411.237 225.668 402.214 215.176 391.093 209.72C383.539 205.734 375.146 204.055 367.172 204.055C359.408 203.845 351.225 204.684 342.832 208.461C331.92 213.288 323.527 223.989 323.527 236.579C323.527 244.133 326.884 252.736 334.019 258.401C340.314 263.437 347.238 265.746 356.261 268.264C363.605 270.362 369.9 271.831 375.566 273.509C382.7 275.608 387.316 277.286 390.673 280.434C393.611 283.162 394.87 286.309 394.66 290.086C394.241 293.863 392.562 296.801 389.205 299.319C384.588 302.886 375.775 304.145 368.641 304.145C360.038 304.145 351.225 302.256 345.14 295.542C341.153 291.345 338.635 284.211 338.006 278.755L318.491 283.581C319.54 290.716 324.367 302.047 330.452 308.761C340.314 319.463 353.743 323.659 368.851 323.659C380.182 323.659 391.513 321.771 400.326 316.105C408.929 310.65 414.594 301.837 415.434 291.765C416.273 281.273 412.076 272.46 403.263 265.536C396.339 259.66 389.834 257.772 381.231 255.254C373.257 253.156 366.123 251.267 360.667 249.589C353.533 247.49 349.546 245.602 346.819 243.084C345.14 241.195 344.301 238.887 344.301 236.159C344.301 232.592 346.819 229.025 351.435 226.507C355.631 224.409 361.087 223.36 366.962 223.36C372.418 223.36 377.874 224.619 382.28 226.927C388.155 229.864 392.772 235.74 394.87 241.825L414.804 236.999Z" fill="#2E3338"/>
</svg>
