<svg width="136" height="64" viewBox="0 0 136 64" fill="none" xmlns="http://www.w3.org/2000/svg">
<path d="M11.6812 32.8014C5.5945 32.8014 1.24658 37.1166 1.24658 43.2116C1.24658 49.2303 5.55642 53.6211 11.7567 53.6211C15.0839 53.6211 17.7679 52.4473 19.7718 49.8356L16.7098 46.6179C15.4246 48.2458 13.9877 48.9273 11.7947 48.9273C9.0727 48.9273 7.29586 47.4513 6.72874 44.877H21.1332C21.2467 44.3847 21.2841 43.7413 21.2841 43.2116C21.2841 37.1548 17.4279 32.8014 11.6812 32.8014ZM6.72874 41.5081C7.25778 38.9719 8.99722 37.4196 11.5683 37.4196C14.0258 37.4196 15.7272 39.0475 16.1053 41.5081H6.72874Z" fill="white"/>
<path d="M41.2845 33.4074H35.4624L31.8325 39.5773H31.6816L27.9763 33.4074H22.0786L28.506 43.1354L22.0786 53.0152H27.9389L31.5299 46.7317H31.6816L35.4624 53.0152H41.3219L34.8953 43.1354L41.2845 33.4074Z" fill="white"/>
<path d="M55.7644 32.8014C52.8152 32.8014 50.3958 34.0508 49.148 35.981H49.0344C49.0725 35.5643 49.1099 35.1483 49.1099 34.3156V33.4074H44.2329V61.7219H49.488V52.5992C49.488 51.5391 49.4499 51.1605 49.4125 50.8957H49.526C50.4712 52.5236 52.8152 53.6211 55.5372 53.6211C61.0949 53.6211 65.2157 49.3433 65.2157 43.2116C65.2164 37.0792 61.2465 32.8014 55.7644 32.8014ZM54.5927 48.9273C51.4926 48.9273 49.2996 46.5805 49.2996 43.1735C49.2996 39.7665 51.4926 37.4196 54.5927 37.4196C57.6928 37.4196 59.9232 39.7665 59.9232 43.1735C59.9232 46.5805 57.6928 48.9273 54.5927 48.9273Z" fill="white"/>
<path d="M74.4033 24.6251H69.1108V53.0152H78.4867V48.397H74.4033V24.6251Z" fill="white"/>
<path d="M90.5845 32.8014C84.4978 32.8014 80.1118 37.1548 80.1118 43.2116C80.1118 49.2303 84.4971 53.6211 90.5845 53.6211C96.6712 53.6211 101.095 49.2303 101.095 43.2116C101.095 37.1548 96.6719 32.8014 90.5845 32.8014ZM90.5845 48.9273C87.5225 48.9273 85.4049 46.5423 85.4049 43.136C85.4049 39.7672 87.5218 37.4203 90.5845 37.4203C93.6846 37.4203 95.7641 39.7672 95.7641 43.136C95.7641 46.5423 93.6846 48.9273 90.5845 48.9273Z" fill="white"/>
<path d="M104.951 53.0152H110.244V38.0631H114.402V33.4074H104.951V53.0152Z" fill="white"/>
<path d="M86.1602 28.333H110.455L128.938 9.82611V18.3728H133.359V2.26526H117.192V6.69215H125.815L108.623 23.9061H87.9738L78.0757 14.1318H64.7824L55.0652 23.9061H1.24658V28.333H56.9025L66.6197 18.5587H76.2621L86.1602 28.333Z" fill="white"/>
<path d="M126.766 36.5489C126.69 36.5489 126.463 36.5489 126.199 36.587V36.5489L133.419 29.3189V24.6251H122.112L117.424 29.3189H127.182L119.204 37.7227L121.699 41.1296C122.606 40.5999 123.4 40.2969 124.913 40.2969C127.824 40.2969 129.412 42.1516 129.412 44.6122C129.412 46.9972 127.673 48.8137 125.026 48.8137C122.531 48.8137 121.17 47.6025 120.149 45.7097L116.293 48.4352C117.919 51.6147 120.603 53.6212 125.064 53.6212C130.811 53.6212 134.818 49.7982 134.818 44.8015C134.818 40.2207 131.945 36.5489 126.766 36.5489Z" fill="white"/>
</svg>
